<?xml version="1.0" encoding="UTF-8"?>
<!DOCTYPE svg PUBLIC "-//W3C//DTD SVG 1.1//EN" "http://www.w3.org/Graphics/SVG/1.1/DTD/svg11.dtd">
<!-- Creator: CorelDRAW X7 -->
<svg xmlns="http://www.w3.org/2000/svg" xml:space="preserve" width="0.16in" height="0.16in" version="1.1" shape-rendering="geometricPrecision" text-rendering="geometricPrecision" image-rendering="optimizeQuality" fill-rule="evenodd" clip-rule="evenodd"
viewBox="0 0 19 19"
 xmlns:xlink="http://www.w3.org/1999/xlink">
 <g id="Layer_x0020_1">
  <metadata id="CorelCorpID_0Corel-Layer"/>
  <rect fill="white" width="19.0034" height="19.0034"/>
  <g id="_630878704">
   <path fill="black" d="M10 8l-4 0c0,0 1,-1 2,-2 0,0 1,-1 1,-1l2 -2c1,-1 1,-1 0,-1l-5 0c0,1 0,1 -1,3l-4 4c-1,0 0,1 0,1l4 5c1,1 0,1 0,2l6 0c1,0 0,-1 0,-1 -1,-1 -1,-1 -2,-2l-2 -2c-1,-1 -1,-1 -1,-1 1,0 3,0 3,0l1 0 0 -3z"/>
   <path fill="red" d="M10 5l4 0c1,0 2,1 1,2 0,1 -1,1 -1,1l-4 0 0 3 4 0c0,0 1,0 1,1 0,1 0,2 -1,2l-4 0 3 3c1,0 2,0 3,-1 1,0 1,-1 2,-1 1,-2 1,-3 0,-5 -1,0 -1,0 0,-1 0,0 0,0 0,-1 0,0 0,-1 0,-2 0,-3 -4,-4 -5,-4l-3 3z"/>
   <path fill="none" d="M10 5l4 0c1,0 2,1 1,2 0,1 -1,1 -1,1l-4 0 0 3 4 0c0,0 1,0 1,1 0,1 0,2 -1,2l-4 0 3 3c1,0 2,0 3,-1 1,0 1,-1 2,-1 1,-2 1,-3 0,-5 -1,0 -1,0 0,-1 0,0 0,0 0,-1 0,0 0,-1 0,-2 0,-3 -4,-4 -5,-4l-3 3zm0 3l-4 0c0,0 1,-1 2,-2 0,0 1,-1 1,-1l2 -2c1,-1 1,-1 0,-1l-5 0c0,1 0,1 -1,3l-4 4c-1,0 0,1 0,1l4 5c1,1 0,1 0,2l6 0c1,0 0,-1 0,-1 -1,-1 -1,-1 -2,-2l-2 -2c-1,-1 -1,-1 -1,-1 1,0 3,0 3,0l1 0 0 -3z"/>
  </g>
 </g>
</svg>
